<?xml version="1.0" encoding="utf-8"?>
<!-- Generator: Adobe Illustrator 23.0.1, SVG Export Plug-In . SVG Version: 6.00 Build 0)  -->
<svg version="1.1" id="Layer_1" xmlns="http://www.w3.org/2000/svg" xmlns:xlink="http://www.w3.org/1999/xlink" x="0px" y="0px"
	 viewBox="0 0 72 72" style="enable-background:new 0 0 72 72;" xml:space="preserve">
<style type="text/css">
	.st0{fill:#486E4B;}
</style>
<g>
	<path class="st0" d="M28.9,31.4c-5.8,0.6-10,2.1-12.7,4.6c-2.7,2.5-4.1,6-4.1,10.6c0,2.7,0.6,6.5,1.7,8.6L34,37.9
		c0.1-0.1,0.3,0.1,0.2,0.2L16.7,58.3c2.1,1.1,5.9,1.7,8.6,1.7c4.6,0,8.2-1.4,10.6-4.1c2.5-2.7,4-7,4.6-12.7L42,30L28.9,31.4z"/>
	<path class="st0" d="M22,12v6c0,3.3,2.7,6,6,6h20v20c0,3.3,2.7,6,6,6h6V24c0-6.6-5.4-12-12-12H22z"/>
</g>
</svg>
