<?xml version="1.0" encoding="utf-8"?>
<!-- Generator: Adobe Illustrator 23.0.1, SVG Export Plug-In . SVG Version: 6.00 Build 0)  -->
<svg version="1.1" id="Layer_1" xmlns="http://www.w3.org/2000/svg" xmlns:xlink="http://www.w3.org/1999/xlink" x="0px" y="0px"
	 viewBox="0 0 90 24" style="enable-background:new 0 0 90 24;" xml:space="preserve">
<style type="text/css">
	.st0{fill:#486E4B;}
</style>
<g>
	<g>
		<path class="st0" d="M27.9,9c0.6,0,1.2,0.1,1.7,0.2c0.5,0.1,0.9,0.3,1.3,0.6c0.4,0.3,0.6,0.6,0.8,1c0.2,0.4,0.3,0.9,0.3,1.4v3.9
			c0,0.3-0.1,0.5-0.3,0.7c-0.2,0.2-0.4,0.4-0.6,0.5C30.4,17.8,29.4,18,28,18c-0.6,0-1.2-0.1-1.6-0.2c-0.5-0.1-0.9-0.3-1.3-0.5
			c-0.4-0.2-0.6-0.5-0.8-0.9c-0.2-0.4-0.3-0.8-0.3-1.3c0-0.8,0.2-1.4,0.7-1.8c0.5-0.4,1.2-0.7,2.2-0.8l2.4-0.2v-0.1
			c0-0.3-0.2-0.6-0.5-0.7c-0.3-0.1-0.7-0.2-1.3-0.2c-0.4,0-0.8,0-1.3,0.1c-0.4,0.1-0.8,0.2-1.1,0.3c-0.1-0.1-0.3-0.3-0.4-0.5
			c-0.1-0.2-0.2-0.4-0.2-0.7c0-0.3,0.1-0.5,0.2-0.7c0.1-0.2,0.4-0.3,0.7-0.5c0.3-0.1,0.7-0.2,1.2-0.3C27,9,27.5,9,27.9,9z
			 M27.6,15.8c0.6,0,1.3-0.1,1.7-0.2v-1.5c-0.3,0-1.2,0.1-1.7,0.2c-0.3,0-0.6,0.1-0.8,0.2c-0.2,0.1-0.3,0.3-0.3,0.5
			c0,0.2,0.1,0.4,0.3,0.6C26.8,15.8,27.1,15.8,27.6,15.8z"/>
		<path class="st0" d="M35.4,18c-0.6,0-1-0.1-1.3-0.3c-0.3-0.2-0.4-0.6-0.4-1.1V6.2c0.1,0,0.3-0.1,0.6-0.1C34.5,6,34.8,6,35.1,6
			c0.6,0,1,0.1,1.3,0.3c0.3,0.2,0.4,0.6,0.4,1.1v10.4c-0.1,0-0.3,0.1-0.6,0.1C36,18,35.7,18,35.4,18z"/>
		<path class="st0" d="M67.8,14.7c0.2,0.4,0.4,0.7,0.8,0.9c0.4,0.2,0.8,0.3,1.3,0.3c0.5,0,1-0.1,1.4-0.2c0.4-0.1,0.8-0.3,1.1-0.4
			c0.2,0.1,0.3,0.3,0.5,0.5c0.1,0.2,0.2,0.4,0.2,0.7c0,0.6-0.7,1.1-1,1.2c-0.7,0.3-1.3,0.4-2.2,0.4c-0.7,0-1.4-0.1-2-0.3
			c-0.6-0.2-1.1-0.5-1.5-0.9c-0.4-0.4-0.8-0.9-1-1.4c-0.2-0.6-0.4-1.3-0.4-2c0-0.8,0.1-1.4,0.4-2c0.2-0.6,0.6-1,1-1.4
			c0.4-0.4,0.9-0.6,1.4-0.8C68.2,9.1,68.7,9,69.3,9c0.6,0,1.2,0.1,1.7,0.3c0.5,0.2,0.9,0.4,1.3,0.8c0.4,0.3,0.6,0.7,0.8,1.2
			c0.2,0.5,0.3,0.9,0.3,1.5c0,0.4-0.1,0.7-0.3,0.9c-0.2,0.2-0.5,0.3-0.9,0.4L67.8,14.7z M69.3,11.2c-0.4,0-0.8,0.1-1.1,0.4
			c-0.3,0.3-0.5,0.6-0.5,1.1l3-0.5c0-0.1,0-0.2-0.1-0.4c-0.1-0.1-0.1-0.2-0.2-0.3c-0.1-0.1-0.2-0.2-0.4-0.3
			C69.7,11.2,69.5,11.2,69.3,11.2z"/>
		<path class="st0" d="M63,10.7c-0.2-0.4-0.5-0.8-0.8-1c-0.3-0.3-0.7-0.4-1.1-0.6C60.6,9.1,60.2,9,59.7,9c-0.6,0-1.1,0.1-1.6,0.2
			c-0.4,0.2-0.8,0.3-1.2,0.6c-0.4-0.3-0.8-0.5-1.2-0.6C55.3,9.1,54.8,9,54.3,9c-0.7,0-1.3,0.1-1.9,0.3c-0.6,0.2-1.1,0.4-1.5,0.7
			c-0.2,0.2-0.4,0.3-0.6,0.5c-0.1,0.2-0.2,0.5-0.2,0.8c0,0,0,5.3,0,5.3c0,0.5,0.1,0.9,0.4,1.1c0.3,0.2,0.7,0.3,1.3,0.3
			c0.3,0,0.5,0,0.8-0.1c0.2,0,0.4-0.1,0.6-0.1v-6.2c0.1-0.1,0.2-0.1,0.4-0.2c0.2-0.1,0.4-0.1,0.6-0.1c0.3,0,0.5,0.1,0.7,0.2
			c0.2,0.2,0.3,0.4,0.3,0.8v4.2c0,0.6,0.1,0.9,0.4,1.1c0.3,0.2,0.7,0.3,1.3,0.3c0.3,0,0.5,0,0.8-0.1c0.2,0,0.4-0.1,0.6-0.1
			c0,0,0-6.1,0-6.1c0.1-0.1,0.3-0.2,0.4-0.2c0.2-0.1,0.4-0.1,0.6-0.1c0.3,0,0.5,0.1,0.7,0.3c0.2,0.2,0.3,0.4,0.3,0.8l0,4.2
			c0,0.6,0.1,0.9,0.4,1.1c0.3,0.2,0.7,0.3,1.3,0.3c0.3,0,0.5,0,0.8-0.1c0.2,0,0.4-0.1,0.6-0.1c0,0,0,0,0,0v0v-5.6
			C63.2,11.7,63.2,11.2,63,10.7z"/>
		<path class="st0" d="M83.6,6.3C83.4,6.1,82.9,6,82.3,6c-0.3,0-0.5,0-0.8,0.1c-0.2,0-0.4,0.1-0.6,0.1v3.1C80.6,9.1,80.1,9,79.6,9
			c-0.6,0-1.3,0.1-1.8,0.3c-0.6,0.2-1.1,0.5-1.5,0.8c-0.4,0.4-0.7,0.8-1,1.4c-0.2,0.6-0.4,1.2-0.4,2c0,1.5,0.4,2.6,1.3,3.4
			c0.9,0.7,2.1,1.1,3.7,1.1c0.7,0,1.4-0.1,1.9-0.3c0.5-0.2,1-0.4,1.3-0.6c0.5-0.3,0.8-0.8,0.8-1.3V7.4C84,6.9,83.9,6.5,83.6,6.3z
			 M81,15.4c-0.1,0.1-0.3,0.1-0.4,0.1c-0.2,0-0.4,0.1-0.6,0.1c-0.6,0-1.1-0.2-1.5-0.5S78,14.3,78,13.5c0-0.7,0.2-1.3,0.5-1.7
			c0.3-0.4,0.9-0.5,1.5-0.5c0.2,0,0.3,0,0.5,0.1c0.1,0,0.3,0.1,0.5,0.1V15.4z"/>
		<path class="st0" d="M43.9,15.3c-0.1,0.1-0.8,0.4-1.4,0.4c-0.3,0-0.5,0-0.7-0.2c-0.2-0.1-0.3-0.3-0.3-0.7v-3.3h1.9
			c0.3,0,0.5-0.1,0.6-0.3c0.2-0.2,0.2-0.5,0.2-0.9c0-0.2,0-0.4-0.1-0.6C44.1,9.7,44,9.5,44,9.4h-2.5l0,0V8.3c0-0.5-0.1-0.9-0.4-1
			C40.9,7.1,40.5,7,40,7c-0.3,0-0.5,0-0.7,0c-0.2,0-0.4,0.1-0.5,0.1v7.7c0,0.5,0.1,1,0.2,1.4c0.1,0.4,0.3,0.7,0.6,1
			c0.3,0.3,0.6,0.5,1,0.6c0.4,0.1,0.7,0.2,1.2,0.2c0.8,0,1.4-0.2,1.9-0.5c0.3-0.2,0.6-0.6,0.6-1c0-0.3,0-0.4-0.1-0.7
			C44.1,15.6,44,15.4,43.9,15.3z"/>
		<circle class="st0" cx="47.2" cy="16.2" r="1.7"/>
	</g>
	<g>
		<path class="st0" d="M10.2,10.9C8.8,11,7.7,11.4,7,12c-0.7,0.6-1,1.5-1,2.7c0,0.7,0.1,1.6,0.4,2.2l5.1-4.3c0,0,0.1,0,0,0l-4.4,5.1
			C7.7,17.9,8.7,18,9.3,18c1.2,0,2-0.3,2.7-1c0.6-0.7,1-1.7,1.2-3.2l0.4-3.3L10.2,10.9z"/>
		<path class="st0" d="M8.5,6v1.5C8.5,8.3,9.2,9,10,9h5v5c0,0.8,0.7,1.5,1.5,1.5H18V9c0-1.7-1.3-3-3-3H8.5z"/>
	</g>
</g>
</svg>
