<?xml version="1.0" encoding="UTF-8" standalone="no"?><!-- Generator: Gravit.io --><svg xmlns="http://www.w3.org/2000/svg" xmlns:xlink="http://www.w3.org/1999/xlink" style="isolation:isolate" viewBox="0 0 560 315" width="560pt" height="315pt"><defs><clipPath id="_clipPath_bI5ld9L6N9zHrsZB2HiDRPWYE0nR5ZVz"><rect width="560" height="315"/></clipPath></defs><g clip-path="url(#_clipPath_bI5ld9L6N9zHrsZB2HiDRPWYE0nR5ZVz)"><rect width="560" height="315" style="fill:rgb(0,82,204)" fill-opacity="0"/><g opacity="0.23"><path d=" M 1.433 -12.86 C 11.435 -18.846 24.395 -15.592 30.381 -5.59 C 36.367 4.411 33.112 17.371 23.111 23.358 C 13.11 29.344 0.149 26.089 -5.837 16.088 C -11.823 6.086 -8.568 -6.874 1.433 -12.86 Z  M 30.459 35.635 C 47.241 25.59 52.702 3.843 42.658 -12.938 C 32.613 -29.72 10.867 -35.181 -5.915 -25.136 C -22.696 -15.092 -28.158 6.654 -18.113 23.435 C -8.069 40.217 13.678 45.679 30.459 35.635 Z " fill-rule="evenodd" fill="rgb(120,214,242)"/></g><g style="opacity:0.26;"><line x1="523.93" y1="245.921" x2="480.693" y2="289.154" vector-effect="non-scaling-stroke" stroke-width="3" stroke="rgb(110,200,196)" stroke-linejoin="bevel" stroke-linecap="round" stroke-miterlimit="10"/><line x1="285.327" y1="17.726" x2="242.098" y2="60.959" vector-effect="non-scaling-stroke" stroke-width="2" stroke="rgb(110,200,196)" stroke-linejoin="bevel" stroke-linecap="round" stroke-miterlimit="10"/><line x1="337.333" y1="-20.28" x2="270.765" y2="46.293" vector-effect="non-scaling-stroke" stroke-width="2" stroke="rgb(110,200,196)" stroke-linejoin="bevel" stroke-linecap="round" stroke-miterlimit="10"/><line x1="337.333" y1="-20.28" x2="270.765" y2="46.293" vector-effect="non-scaling-stroke" stroke-width="2" stroke="rgb(110,200,196)" stroke-linejoin="bevel" stroke-linecap="round" stroke-miterlimit="10"/><line x1="288.667" y1="48.387" x2="222.098" y2="114.959" vector-effect="non-scaling-stroke" stroke-width="2" stroke="rgb(110,200,196)" stroke-linejoin="bevel" stroke-linecap="round" stroke-miterlimit="10"/><line x1="21.24" y1="141.751" x2="-21.994" y2="184.984" vector-effect="non-scaling-stroke" stroke-width="3" stroke="rgb(110,200,196)" stroke-linejoin="bevel" stroke-linecap="round" stroke-miterlimit="10"/><line x1="53.907" y1="133.085" x2="10.673" y2="176.318" vector-effect="non-scaling-stroke" stroke-width="3" stroke="rgb(110,200,196)" stroke-linejoin="bevel" stroke-linecap="round" stroke-miterlimit="10"/><line x1="33.05" y1="110.835" x2="-10.183" y2="154.069" vector-effect="non-scaling-stroke" stroke-width="3" stroke="rgb(110,200,196)" stroke-linejoin="bevel" stroke-linecap="round" stroke-miterlimit="10"/><line x1="446.574" y1="220.964" x2="403.344" y2="264.198" vector-effect="non-scaling-stroke" stroke-width="3" stroke="rgb(110,200,196)" stroke-linejoin="bevel" stroke-linecap="round" stroke-miterlimit="10"/><path d=" M 461.954 196.349 L 430.817 227.484 L 418.718 239.582" fill="none" vector-effect="non-scaling-stroke" stroke-width="3" stroke="rgb(110,200,196)" stroke-linejoin="bevel" stroke-linecap="round" stroke-miterlimit="10"/></g><g opacity="0.23"><path d=" M -22.16 271.259 C -19.781 267.587 -16.968 264.116 -13.69 260.943 C 9.616 238.39 46.793 239.001 69.346 262.306 C 91.9 285.612 91.29 322.789 67.984 345.343 C 64.705 348.515 61.145 351.213 57.397 353.47 L 61.155 357.354 C 64.858 355.028 68.379 352.29 71.647 349.128 C 97.044 324.551 97.709 284.04 73.132 258.643 C 48.556 233.246 8.044 232.581 -17.353 257.158 C -20.621 260.321 -23.471 263.75 -25.919 267.374 L -22.16 271.259 Z " fill-rule="evenodd" fill="rgb(142,142,195)" fill-opacity="0.28"/></g><g opacity="0.19"><path d=" M 525.492 92.032 C 525.942 92.032 526.395 92.175 526.779 92.471 C 536.962 100.309 548.12 107.173 559.943 112.872 C 560.995 113.378 561.436 114.642 560.929 115.693 C 560.423 116.745 559.159 117.186 558.108 116.679 C 546.023 110.854 534.615 103.836 524.201 95.82 C 523.276 95.108 523.104 93.782 523.815 92.856 C 524.232 92.316 524.858 92.032 525.492 92.032 L 525.492 92.032 L 525.492 92.032 L 525.492 92.032 L 525.492 92.032 L 525.492 92.032 L 525.492 92.032 L 525.492 92.032 L 525.492 92.032 L 525.492 92.032 L 525.492 92.032 L 525.492 92.032 L 525.492 92.032 L 525.492 92.032 L 525.492 92.032 L 525.492 92.032 Z  M 458.115 -14.039 C 459.072 -14.039 459.938 -13.386 460.169 -12.415 C 469.754 27.821 490.722 62.43 520.808 87.672 C 521.702 88.422 521.819 89.755 521.069 90.649 C 520.318 91.543 518.985 91.66 518.091 90.91 C 503.118 78.347 490.315 63.559 480.04 46.956 C 469.175 29.402 461.106 9.756 456.058 -11.436 C 455.788 -12.572 456.489 -13.711 457.624 -13.981 C 457.788 -14.02 457.954 -14.039 458.115 -14.039 L 458.115 -14.039 L 458.115 -14.039 L 458.115 -14.039 L 458.115 -14.039 L 458.115 -14.039 L 458.115 -14.039 L 458.115 -14.039 L 458.115 -14.039 L 458.115 -14.039 L 458.115 -14.039 L 458.115 -14.039 L 458.115 -14.039 L 458.115 -14.039 L 458.115 -14.039 L 458.115 -14.039 Z  M 461.328 -46.624 C 462.406 -46.624 463.326 -45.804 463.429 -44.709 C 465.911 -18.392 472.708 5.842 483.633 27.319 C 484.162 28.359 483.748 29.632 482.708 30.161 C 481.667 30.691 480.395 30.276 479.866 29.235 C 468.699 7.282 461.753 -17.463 459.221 -44.312 C 459.112 -45.474 459.965 -46.505 461.127 -46.615 C 461.194 -46.621 461.261 -46.624 461.328 -46.624 L 461.328 -46.624 L 461.328 -46.624 L 461.328 -46.624 L 461.328 -46.624 L 461.328 -46.624 L 461.328 -46.624 L 461.328 -46.624 L 461.328 -46.624 L 461.328 -46.624 L 461.328 -46.624 L 461.328 -46.624 L 461.328 -46.624 L 461.328 -46.624 L 461.328 -46.624 Z  M 485.875 33.812 C 486.609 33.812 487.322 34.194 487.712 34.877 C 510.033 73.921 547.171 102.833 592.285 116.287 C 593.403 116.62 594.039 117.797 593.706 118.915 C 593.372 120.034 592.196 120.67 591.077 120.337 C 568.688 113.66 548.258 103.372 530.354 89.756 C 511.411 75.351 495.83 57.593 484.042 36.975 C 483.463 35.961 483.815 34.67 484.828 34.091 C 485.159 33.902 485.52 33.812 485.875 33.812 L 485.875 33.812 L 485.875 33.812 L 485.875 33.812 L 485.875 33.812 L 485.875 33.812 L 485.875 33.812 L 485.875 33.812 L 485.875 33.812 L 485.875 33.812 L 485.875 33.812 L 485.875 33.812 L 485.875 33.812 L 485.875 33.812 Z  M 527.152 70.063 C 527.654 70.063 528.158 70.24 528.561 70.601 C 536.512 77.715 545.269 84.137 554.588 89.686 C 555.591 90.283 555.92 91.58 555.323 92.583 C 554.726 93.586 553.429 93.915 552.426 93.318 C 542.873 87.629 533.896 81.046 525.742 73.75 C 524.873 72.972 524.799 71.636 525.577 70.767 C 525.994 70.3 526.572 70.063 527.152 70.063 L 527.152 70.063 L 527.152 70.063 L 527.152 70.063 L 527.152 70.063 L 527.152 70.063 L 527.152 70.063 L 527.152 70.063 L 527.152 70.063 L 527.152 70.063 L 527.152 70.063 L 527.152 70.063 L 527.152 70.063 Z  M 536.224 115.612 C 536.721 115.541 537.245 115.645 537.695 115.945 C 546.578 121.855 556.159 126.964 566.174 131.131 C 567.252 131.579 567.762 132.816 567.313 133.894 C 566.865 134.971 565.628 135.482 564.55 135.033 C 554.285 130.762 544.462 125.524 535.354 119.463 C 534.382 118.817 534.119 117.505 534.765 116.533 C 535.112 116.012 535.65 115.695 536.224 115.612 L 536.224 115.612 L 536.224 115.612 L 536.224 115.612 L 536.224 115.612 L 536.224 115.612 L 536.224 115.612 L 536.224 115.612 L 536.224 115.612 L 536.224 115.612 L 536.224 115.612 L 536.224 115.612 Z  M 474.728 -21.174 C 475.695 -21.174 476.568 -20.506 476.788 -19.523 C 482.238 4.782 491.867 26.438 505.516 45.153 C 510.999 52.671 517.13 59.714 523.9 66.264 C 524.739 67.076 524.761 68.413 523.949 69.252 C 523.138 70.091 521.8 70.113 520.961 69.301 C 509.284 58.004 499.314 45.038 491.326 30.764 C 482.918 15.738 476.639 -0.87 472.664 -18.598 C 472.409 -19.737 473.125 -20.867 474.264 -21.122 C 474.419 -21.158 474.575 -21.174 474.728 -21.174 L 474.728 -21.174 L 474.728 -21.174 L 474.728 -21.174 L 474.728 -21.174 L 474.728 -21.174 L 474.728 -21.174 L 474.728 -21.174 L 474.728 -21.174 L 474.728 -21.174 L 474.728 -21.174 Z  M 478.996 -48.362 C 480.074 -48.362 480.995 -47.541 481.098 -46.446 C 483.143 -24.76 488.436 -4.59 496.831 13.506 C 497.322 14.565 496.862 15.821 495.803 16.312 C 494.744 16.803 493.488 16.343 492.997 15.285 C 484.399 -3.248 478.98 -23.884 476.89 -46.05 C 476.781 -47.211 477.634 -48.242 478.795 -48.352 C 478.863 -48.358 478.93 -48.362 478.996 -48.362 L 478.996 -48.362 L 478.996 -48.362 L 478.996 -48.362 L 478.996 -48.362 L 478.996 -48.362 L 478.996 -48.362 L 478.996 -48.362 L 478.996 -48.362 L 478.996 -48.362 Z  M 498.1 18.775 C 498.863 18.775 499.601 19.19 499.977 19.915 C 517.365 53.434 545.58 78.923 581.572 93.625 C 582.653 94.066 583.171 95.3 582.73 96.38 C 582.288 97.461 581.055 97.979 579.974 97.538 C 562.178 90.268 546.09 80.33 532.157 67.997 C 517.436 54.968 505.347 39.445 496.225 21.862 C 495.688 20.825 496.092 19.55 497.128 19.012 C 497.439 18.851 497.772 18.775 498.1 18.775 L 498.1 18.775 L 498.1 18.775 L 498.1 18.775 L 498.1 18.775 L 498.1 18.775 L 498.1 18.775 L 498.1 18.775 L 498.1 18.775 Z  M 515.419 17.578 C 515.139 17.578 514.857 17.649 514.597 17.797 C 513.801 18.252 513.524 19.266 513.979 20.062 C 523.644 36.967 536.419 51.527 551.951 63.338 C 566.631 74.502 583.382 82.938 601.74 88.413 C 602.618 88.674 603.543 88.175 603.805 87.296 C 604.067 86.418 603.567 85.494 602.689 85.231 C 565.662 74.19 535.182 50.46 516.861 18.414 C 516.555 17.878 515.995 17.578 515.419 17.578 L 515.419 17.578 L 515.419 17.578 L 515.419 17.578 L 515.419 17.578 L 515.419 17.578 L 515.419 17.578 L 515.419 17.578 Z  M 556.459 54.578 L 556.459 54.395 C 555.907 54.395 555.36 54.643 554.998 55.114 L 554.998 55.114 C 554.74 55.448 554.615 55.844 554.615 56.236 C 554.615 56.788 554.863 57.335 555.334 57.698 C 563.179 63.736 571.771 69.022 580.873 73.409 C 581.13 73.533 581.404 73.592 581.672 73.592 C 582.357 73.593 583.016 73.208 583.333 72.549 C 583.457 72.292 583.516 72.018 583.516 71.75 C 583.516 71.065 583.132 70.407 582.473 70.089 C 573.599 65.812 565.225 60.66 557.582 54.777 L 557.582 54.778 C 557.247 54.52 556.851 54.395 556.459 54.395 L 556.459 54.578 L 556.459 54.761 C 556.774 54.761 557.09 54.86 557.359 55.067 L 557.359 55.067 C 565.022 60.966 573.418 66.131 582.314 70.419 C 582.843 70.673 583.15 71.2 583.15 71.75 C 583.15 71.965 583.103 72.183 583.003 72.39 C 582.749 72.918 582.222 73.226 581.672 73.226 C 581.457 73.226 581.239 73.179 581.032 73.08 C 571.952 68.703 563.381 63.43 555.557 57.408 C 555.179 57.117 554.981 56.68 554.981 56.236 C 554.981 55.922 555.081 55.606 555.288 55.337 L 555.29 55.333 L 555.288 55.337 C 555.579 54.959 556.016 54.761 556.459 54.761 L 556.459 54.578 L 556.459 54.578 L 556.459 54.578 L 556.459 54.578 L 556.459 54.578 L 556.459 54.578 L 556.459 54.578 Z  M 505.799 -25.177 C 505.672 -25.177 505.542 -25.163 505.413 -25.132 C 504.521 -24.92 503.971 -24.025 504.183 -23.133 C 507.98 -7.191 514.05 7.588 522.223 20.793 C 529.954 33.283 539.585 44.408 550.849 53.859 C 551.551 54.447 552.598 54.356 553.187 53.654 C 553.777 52.952 553.685 51.905 552.983 51.316 C 530.373 32.346 514.615 6.337 507.412 -23.902 C 507.23 -24.665 506.549 -25.177 505.799 -25.177 L 505.799 -25.177 L 505.799 -25.177 L 505.799 -25.177 L 505.799 -25.177 L 505.799 -25.177 Z  M 519.249 -6.827 C 519.045 -6.827 518.837 -6.789 518.635 -6.709 C 517.784 -6.37 517.368 -5.405 517.707 -4.553 C 523.66 10.399 531.999 23.886 542.492 35.533 C 543.106 36.214 544.156 36.268 544.836 35.655 C 545.517 35.041 545.572 33.992 544.958 33.311 C 534.73 21.957 526.599 8.805 520.791 -5.781 C 520.533 -6.431 519.908 -6.827 519.249 -6.827 L 519.249 -6.827 L 519.249 -6.827 L 519.249 -6.827 L 519.249 -6.827 Z  M 547.545 36.823 C 547.126 36.823 546.706 36.981 546.382 37.298 C 545.728 37.94 545.719 38.991 546.362 39.645 C 557.166 50.644 569.889 59.722 584.176 66.627 C 597.9 73.261 612.741 77.742 628.286 79.948 C 629.191 80.079 630.034 79.445 630.163 78.538 C 630.291 77.63 629.66 76.79 628.753 76.661 C 597.752 72.264 569.333 58.292 548.729 37.319 C 548.404 36.988 547.975 36.823 547.545 36.823 L 547.545 36.823 L 547.545 36.823 L 547.545 36.823 Z  M 533.008 6.437 C 532.731 6.437 532.45 6.506 532.191 6.653 C 531.394 7.105 531.114 8.118 531.566 8.915 C 537.599 19.559 545.112 29.222 553.897 37.633 C 562.292 45.671 571.867 52.589 582.354 58.193 C 583.163 58.626 584.168 58.32 584.6 57.512 C 585.032 56.704 584.727 55.698 583.919 55.266 C 563.021 44.097 545.916 27.503 534.454 7.279 C 534.148 6.739 533.587 6.437 533.008 6.437 L 533.008 6.437 L 533.008 6.437 Z  M 532.862 -29.736 C 533.447 -29.736 533.976 -29.337 534.117 -28.744 C 539.975 -4.156 552.788 16.993 571.173 32.418 C 571.719 32.876 571.791 33.691 571.332 34.237 C 570.874 34.784 570.059 34.855 569.513 34.397 C 560.363 26.72 552.539 17.683 546.26 7.538 C 539.621 -3.19 534.69 -15.195 531.605 -28.145 C 531.44 -28.839 531.868 -29.535 532.562 -29.7 C 532.663 -29.725 532.763 -29.736 532.862 -29.736 L 532.862 -29.736 Z  M 530.385 115.307 C 529.172 115.307 528.189 114.324 528.189 113.111 C 528.189 111.899 529.172 110.915 530.385 110.915 C 531.597 110.915 532.581 111.899 532.581 113.111 C 532.581 114.324 531.597 115.307 530.385 115.307 Z " fill-rule="evenodd" fill="rgb(255,255,255)"/></g><g><g opacity="0.25"><path d=" M 182.94 123.178 C 182.94 132.367 175.478 139.818 166.289 139.818 C 157.099 139.818 149.653 132.367 149.653 123.178 C 149.653 113.988 157.099 106.537 166.289 106.537 C 175.478 106.537 182.94 113.988 182.94 123.178 Z " fill="none" vector-effect="non-scaling-stroke" stroke-width="3" stroke="rgb(0,178,230)" stroke-linejoin="miter" stroke-linecap="butt" stroke-miterlimit="10"/></g><path d=" M 67.333 65.912 L 63.452 65.912 L 63.452 62.032 L 59.394 62.032 L 59.394 65.912 L 55.516 65.912 L 55.516 69.97 L 59.394 69.97 L 59.394 73.85 L 63.452 73.85 L 63.452 69.97 L 67.333 69.97 L 67.333 65.912 Z " fill="rgb(0,178,230)"/><g opacity="0.12"><path d=" M 356.496 26.374 L 349.838 26.374 L 349.838 19.715 L 342.87 19.715 L 342.87 26.374 L 336.212 26.374 L 336.212 33.341 L 342.87 33.341 L 342.87 40 L 349.838 40 L 349.838 33.341 L 356.496 33.341 L 356.496 26.374 Z " fill="rgb(255,255,255)"/></g><g opacity="0.51"><path d=" M 122.439 205.167 L 117.988 205.167 L 117.988 200.715 L 113.33 200.715 L 113.33 205.167 L 108.879 205.167 L 108.879 209.824 L 113.33 209.824 L 113.33 214.276 L 117.988 214.276 L 117.988 209.824 L 122.439 209.824 L 122.439 205.167 Z " fill="rgb(74,134,232)"/></g><g opacity="0.11"><path d=" M 125.999 -6.582 C 124.468 -5.05 122.781 -5.155 121.426 -5.239 C 120.218 -5.315 119.265 -5.374 118.356 -4.466 C 117.448 -3.558 117.508 -2.604 117.583 -1.397 C 117.668 -0.041 117.773 1.645 116.241 3.177 C 114.71 4.708 113.024 4.602 111.668 4.518 C 110.461 4.443 109.507 4.383 108.599 5.291 C 107.692 6.199 107.751 7.152 107.826 8.36 C 107.911 9.715 108.016 11.401 106.485 12.932 C 104.954 14.464 103.268 14.359 101.912 14.274 C 100.705 14.199 99.751 14.139 98.843 15.047 C 98.462 15.429 97.843 15.429 97.462 15.047 C 97.08 14.666 97.08 14.047 97.462 13.665 C 98.993 12.134 100.679 12.239 102.034 12.324 C 103.242 12.399 104.196 12.459 105.103 11.551 C 106.011 10.643 105.951 9.689 105.876 8.482 C 105.792 7.127 105.686 5.441 107.217 3.909 C 108.749 2.378 110.435 2.483 111.79 2.568 C 112.998 2.643 113.951 2.702 114.859 1.795 C 115.767 0.886 115.708 -0.068 115.633 -1.275 C 115.549 -2.63 115.443 -4.317 116.975 -5.848 C 118.506 -7.379 120.193 -7.274 121.548 -7.19 C 122.755 -7.115 123.709 -7.055 124.617 -7.963 C 124.999 -8.345 125.617 -8.345 125.999 -7.963 C 126.381 -7.582 126.381 -6.963 125.999 -6.582 Z " fill="rgb(86,200,243)"/></g><g opacity="0.22"><path d=" M 134.435 31.644 C 132.314 33.765 129.978 33.62 128.101 33.503 C 126.428 33.398 125.106 33.316 123.849 34.574 C 122.591 35.832 122.673 37.153 122.777 38.826 C 122.895 40.703 123.04 43.039 120.919 45.16 C 118.797 47.282 116.461 47.136 114.584 47.019 C 112.912 46.915 111.59 46.832 110.333 48.09 C 109.076 49.347 109.158 50.668 109.262 52.341 C 109.38 54.218 109.525 56.553 107.404 58.674 C 105.283 60.796 102.948 60.65 101.07 60.533 C 99.398 60.428 98.076 60.346 96.819 61.604 C 96.291 62.132 95.434 62.132 94.905 61.604 C 94.377 61.075 94.377 60.218 94.905 59.689 C 97.026 57.568 99.362 57.714 101.239 57.831 C 102.912 57.935 104.233 58.018 105.49 56.761 C 106.748 55.503 106.665 54.182 106.561 52.509 C 106.444 50.632 106.298 48.297 108.419 46.176 C 110.54 44.054 112.876 44.2 114.753 44.317 C 116.426 44.422 117.747 44.503 119.004 43.246 C 120.262 41.988 120.18 40.667 120.076 38.994 C 119.959 37.117 119.813 34.781 121.934 32.66 C 124.056 30.539 126.392 30.684 128.269 30.801 C 129.942 30.905 131.263 30.988 132.521 29.73 C 133.049 29.201 133.906 29.201 134.435 29.73 C 134.964 30.258 134.964 31.115 134.435 31.644 Z " fill="rgb(86,200,243)"/></g><g opacity="0.25"><path d=" M 451.895 46.361 C 449.804 48.451 447.502 48.308 445.652 48.193 C 444.003 48.09 442.701 48.009 441.461 49.249 C 440.221 50.488 440.303 51.791 440.405 53.439 C 440.521 55.289 440.665 57.591 438.573 59.682 C 436.483 61.773 434.181 61.629 432.331 61.513 C 430.682 61.411 429.38 61.33 428.141 62.569 C 426.902 63.808 426.983 65.11 427.086 66.759 C 427.201 68.608 427.345 70.91 425.255 73.001 C 423.164 75.091 420.862 74.948 419.012 74.832 C 417.364 74.729 416.062 74.648 414.823 75.888 C 414.302 76.408 413.457 76.408 412.936 75.888 C 412.415 75.367 412.415 74.522 412.936 74.001 C 415.027 71.911 417.328 72.054 419.179 72.17 C 420.827 72.272 422.129 72.354 423.368 71.115 C 424.607 69.875 424.526 68.573 424.423 66.925 C 424.308 65.075 424.164 62.773 426.255 60.683 C 428.345 58.592 430.647 58.736 432.497 58.851 C 434.146 58.954 435.448 59.035 436.687 57.796 C 437.927 56.556 437.846 55.253 437.743 53.605 C 437.628 51.755 437.484 49.453 439.575 47.362 C 441.665 45.272 443.968 45.415 445.817 45.53 C 447.466 45.633 448.768 45.714 450.008 44.475 C 450.529 43.954 451.374 43.954 451.895 44.475 C 452.416 44.995 452.416 45.84 451.895 46.361 Z " fill="rgb(12,230,226)"/></g></g><g/></g></svg>