<?xml version="1.0" encoding="UTF-8" standalone="no"?><!-- Generator: Gravit.io --><svg xmlns="http://www.w3.org/2000/svg" xmlns:xlink="http://www.w3.org/1999/xlink" style="isolation:isolate" viewBox="0 0 400 400" width="400pt" height="400pt"><path d=" M 206.567 289.515 L 209.393 369.045 L 179.891 370.598 L 116.23 344.202 L 71.201 285.198 L 68.096 122.163 L 198.524 63.16 L 198.99 76.259 L 206.567 72.853 L 206.567 289.515 Z " id="Path" fill="rgb(159,195,249)"/><path d=" M 344.23 117.68 L 344.23 239.05 C 344.24 258.5 340.34 277.75 332.76 295.66 C 325.43 312.95 314.82 328.67 301.54 341.95 C 288.26 355.24 272.54 365.85 255.25 373.19 C 237.33 380.78 218.07 384.68 198.61 384.67 C 179.16 384.68 159.9 380.78 141.98 373.2 C 124.68 365.87 108.97 355.26 95.69 341.98 C 82.4 328.7 71.8 312.98 64.46 295.69 C 56.88 277.77 52.99 258.51 53 239.05 L 53 116.53 C 52.99 113.94 53.75 111.4 55.19 109.24 C 56.62 107.08 58.66 105.39 61.05 104.38 L 168.068 58.157 L 254.79 20.7 C 254.8 20.7 254.8 20.69 254.81 20.69 C 256.89 19.8 259.13 19.34 261.4 19.33 C 264.35 19.32 267.25 20.12 269.77 21.66 C 272.37 23.24 274.41 25.6 275.61 28.4 C 276.38 30.21 276.77 32.15 276.77 34.1 C 276.74 37.22 275.78 40.26 274.01 42.82 C 272.19 45.45 269.66 47.5 266.71 48.74 L 240.43 59.9 L 312.27 93.27 L 369.22 70.27 C 371.27 69.44 373.47 69.01 375.69 69.01 C 379.14 69 382.51 70.03 385.37 71.96 C 388.23 73.89 390.44 76.63 391.74 79.82 C 392.57 81.88 393 84.08 393 86.29 C 393 89.74 391.97 93.11 390.04 95.97 C 388.12 98.83 385.38 101.05 382.18 102.34 C 382.18 102.34 382.18 102.34 382.18 102.34 L 344.23 117.68 Z " id="Path" fill="rgb(35,111,225)"/><path d=" M 198.613 287.886 L 198.613 363.315 L 198.613 363.315 Q 188.12 363.009 182.485 362.274 C 120.1 354.145 74.35 302.126 74.35 239.053 L 74.35 126.097 L 198.613 71.19 L 198.613 122 L 213.218 151.985 L 198.613 188.004 C 198.822 188.001 199.031 188 199.24 188 C 226.806 188 249.185 210.379 249.185 237.945 C 249.185 265.51 226.806 287.889 199.24 287.889 C 199.031 287.889 198.822 287.888 198.613 287.886 Z " id="Path" fill="rgb(120,169,242)"/><path d=" M 331.102 53.278 L 331.102 53.278 C 334.415 61.085 330.768 70.114 322.961 73.428 L 258.319 100.867 C 250.512 104.181 241.483 100.533 238.169 92.726 L 238.169 92.726 C 234.855 84.919 238.503 75.89 246.31 72.576 L 310.952 45.138 C 318.759 41.824 327.788 45.472 331.102 53.278 Z  M 339.506 42.712 C 339.506 33.995 346.583 26.918 355.3 26.918 C 364.017 26.918 371.094 33.995 371.094 42.712 C 371.094 51.429 364.017 58.506 355.3 58.506 C 346.583 58.506 339.506 51.429 339.506 42.712 Z " fill-rule="evenodd" id="Compound Path" fill="rgb(120,169,242)"/><path d=" M 148.463 123.12 L 173.339 112.005 C 173.353 111.999 173.353 111.999 173.353 111.999 C 183.863 107.319 195.817 106.99 206.557 111.118 C 217.311 115.208 225.996 123.429 230.689 133.933 C 236.325 146.546 235.605 161.129 228.767 173.127 C 234.812 175.873 240.439 179.45 245.488 183.752 C 253.457 190.553 259.792 199.034 264.046 208.591 C 267.913 217.208 269.997 226.525 270.186 235.964 C 270.356 245.073 268.769 254.145 265.515 262.657 C 262.26 271.169 257.403 278.979 251.185 285.657 C 244.747 292.562 236.972 298.098 228.349 301.951 C 219.739 305.798 210.427 307.896 200.988 308.085 C 191.88 308.255 182.808 306.669 174.295 303.414 C 165.783 300.159 157.967 295.289 151.296 289.085 C 144.391 282.646 138.854 274.872 135.001 266.248 C 131.148 257.625 129.056 248.327 128.868 238.888 C 128.691 229.765 130.284 220.707 133.539 212.195 C 136.793 203.683 141.664 195.867 147.868 189.195 C 154.306 182.29 162.075 176.74 170.705 172.901 L 195.581 161.786 C 198.268 160.585 200.367 158.358 201.428 155.612 C 202.47 152.859 202.392 149.799 201.192 147.113 C 199.991 144.426 197.764 142.328 195.024 141.28 C 192.265 140.225 189.211 140.316 186.525 141.516 L 161.635 152.637 C 161.635 152.637 161.635 152.637 161.635 152.637 C 150.305 157.683 140.117 164.959 131.649 174.028 C 123.489 182.814 117.102 193.08 112.822 204.274 C 108.542 215.468 106.45 227.376 106.68 239.359 C 106.924 251.77 109.659 263.987 114.732 275.305 C 119.778 286.634 127.059 296.836 136.136 305.285 C 144.908 313.451 155.18 319.851 166.374 324.131 C 177.568 328.411 189.476 330.503 201.459 330.273 C 213.865 330.016 226.082 327.28 237.405 322.221 C 248.742 317.156 258.93 309.88 267.399 300.811 C 275.565 292.038 281.951 281.772 286.225 270.565 C 290.512 259.384 292.597 247.463 292.381 235.474 C 292.13 223.082 289.388 210.852 284.316 199.534 C 282.569 195.625 282.453 191.182 283.983 187.178 C 285.514 183.175 288.566 179.942 292.475 178.196 C 296.383 176.449 300.841 176.327 304.844 177.858 C 308.841 179.375 312.08 182.44 313.826 186.349 C 320.65 201.621 324.346 218.114 324.692 234.831 C 324.991 250.972 322.173 267.024 316.406 282.105 C 310.646 297.199 302.03 311.023 291.025 322.853 C 279.62 335.088 265.863 344.908 250.585 351.718 C 235.331 358.55 218.838 362.245 202.116 362.578 C 185.974 362.877 169.915 360.078 154.828 354.298 C 139.748 348.532 125.91 339.922 114.099 328.924 C 101.865 317.519 92.045 303.763 85.234 288.484 C 78.397 273.217 74.708 256.738 74.375 240.015 C 74.056 223.866 76.875 207.814 82.641 192.734 C 88.407 177.653 97.031 163.809 108.023 151.985 C 119.428 139.751 133.19 129.944 148.463 123.12 Z  M 234.549 221.77 C 238.682 231.058 238.967 241.614 235.328 251.104 C 231.714 260.614 224.458 268.287 215.163 272.441 C 205.881 276.588 195.325 276.873 185.835 273.233 C 176.332 269.6 168.659 262.344 164.499 253.069 C 160.365 243.781 160.08 233.225 163.72 223.735 C 167.34 214.238 174.595 206.565 183.871 202.404 C 193.172 198.264 203.728 197.979 213.218 201.619 C 222.715 205.239 230.388 212.494 234.549 221.77 Z " fill-rule="evenodd" id="at 2" fill="rgb(255,255,255)"/></svg>